<mxfile host="app.diagrams.net" modified="2022-04-26T08:47:32.092Z" agent="5.0 (Macintosh; Intel Mac OS X 10_15_7) AppleWebKit/605.1.15 (KHTML, like Gecko) Version/15.4 Safari/605.1.15" etag="CxbN06P_IdHOgn8Po_Z6" version="17.4.6" type="github">
  <diagram id="cjJN19iDl6SdktHMLauG" name="第 1 页">
    <mxGraphModel dx="612" dy="443" grid="1" gridSize="10" guides="1" tooltips="1" connect="1" arrows="1" fold="1" page="1" pageScale="1" pageWidth="827" pageHeight="1169" math="0" shadow="0">
      <root>
        <mxCell id="0" />
        <mxCell id="1" parent="0" />
      </root>
    </mxGraphModel>
  </diagram>
</mxfile>
